<svg width="20" height="26" viewBox="0 0 20 26" fill="none" xmlns="http://www.w3.org/2000/svg">
<g clip-path="url(#clip0)">
<path d="M19.375 22.375L13.125 16.125M15.2083 10.9167C15.2083 11.8742 15.0197 12.8224 14.6533 13.7071C14.2868 14.5917 13.7497 15.3956 13.0727 16.0727C12.3956 16.7497 11.5917 17.2868 10.7071 17.6533C9.8224 18.0197 8.87422 18.2083 7.91667 18.2083C6.95911 18.2083 6.01093 18.0197 5.12627 17.6533C4.2416 17.2868 3.43777 16.7497 2.76068 16.0727C2.08359 15.3956 1.54649 14.5917 1.18005 13.7071C0.813605 12.8224 0.625 11.8742 0.625 10.9167C0.625 8.9828 1.39323 7.12813 2.76068 5.76068C4.12813 4.39323 5.9828 3.625 7.91667 3.625C9.85054 3.625 11.7052 4.39323 13.0727 5.76068C14.4401 7.12813 15.2083 8.9828 15.2083 10.9167Z" stroke="#737373" stroke-width="2" stroke-linecap="round" stroke-linejoin="round"/>
</g>
<defs>
<clipPath id="clip0">
<rect width="20" height="25" fill="white" transform="translate(0 0.5)"/>
</clipPath>
</defs>
</svg>
