<?xml version="1.0" encoding="UTF-8"?>
<svg width="700pt" height="700pt" version="1.1" viewBox="0 0 700 700" xmlns="http://www.w3.org/2000/svg" xmlns:xlink="http://www.w3.org/1999/xlink">
 <defs>
  <symbol id="k" overflow="visible">
   <path d="m2.1719-0.125c-0.10547 0.054688-0.21875 0.09375-0.34375 0.125s-0.25 0.046875-0.375 0.046875c-0.39844 0-0.71484-0.10938-0.95312-0.32812-0.23047-0.21875-0.34375-0.51953-0.34375-0.90625 0-0.375 0.11328-0.67188 0.34375-0.89062 0.23828-0.21875 0.55469-0.32812 0.95312-0.32812 0.125 0 0.25 0.015625 0.375 0.046875 0.125 0.023437 0.23828 0.0625 0.34375 0.125v0.48438c-0.11719-0.070312-0.23047-0.125-0.34375-0.15625-0.10547-0.039062-0.21484-0.0625-0.32812-0.0625-0.21875 0-0.39062 0.074219-0.51562 0.21875-0.125 0.13672-0.1875 0.32422-0.1875 0.5625 0 0.25 0.0625 0.44922 0.1875 0.59375 0.125 0.13672 0.29688 0.20312 0.51562 0.20312 0.11328 0 0.22266-0.015625 0.32812-0.046875 0.11328-0.039062 0.22656-0.10156 0.34375-0.1875z"/>
  </symbol>
  <symbol id="d" overflow="visible">
   <path d="m1.5938-1.2969c-0.054688-0.019531-0.10547-0.035156-0.15625-0.046875-0.042969-0.007812-0.089844-0.015625-0.14062-0.015625-0.14844 0-0.26172 0.046875-0.34375 0.14062-0.074219 0.09375-0.10938 0.23047-0.10938 0.40625v0.8125h-0.57812v-1.7812h0.57812v0.29688c0.070312-0.11328 0.15625-0.19531 0.25-0.25 0.09375-0.050781 0.20703-0.078125 0.34375-0.078125h0.0625 0.09375z"/>
  </symbol>
  <symbol id="b" overflow="visible">
   <path d="m2.0469-0.89062v0.15625h-1.3281c0.007812 0.13672 0.054688 0.24219 0.14062 0.3125 0.082031 0.0625 0.19531 0.09375 0.34375 0.09375 0.125 0 0.25-0.015625 0.375-0.046875 0.125-0.039062 0.25391-0.097656 0.39062-0.17188v0.4375c-0.13672 0.054688-0.27344 0.089844-0.40625 0.10938-0.13672 0.03125-0.27344 0.046875-0.40625 0.046875-0.32422 0-0.57422-0.078125-0.75-0.23438-0.17969-0.16406-0.26562-0.39844-0.26562-0.70312 0-0.28906 0.085937-0.51562 0.26562-0.67188 0.17578-0.16406 0.41406-0.25 0.71875-0.25 0.28125 0 0.50391 0.085938 0.67188 0.25 0.16406 0.16797 0.25 0.39062 0.25 0.67188zm-0.57812-0.1875c0-0.11328-0.03125-0.20312-0.09375-0.26562s-0.14844-0.09375-0.25-0.09375c-0.11719 0-0.21094 0.03125-0.28125 0.09375-0.0625 0.0625-0.10547 0.15234-0.125 0.26562z"/>
  </symbol>
  <symbol id="a" overflow="visible">
   <path d="m1.0625-0.79688c-0.11719 0-0.20312 0.023437-0.26562 0.0625-0.054687 0.042969-0.078125 0.10156-0.078125 0.17188 0 0.074219 0.019531 0.13281 0.0625 0.17188 0.050781 0.042969 0.11719 0.0625 0.20312 0.0625 0.10156 0 0.19141-0.035156 0.26562-0.10938 0.070312-0.082031 0.10938-0.17969 0.10938-0.29688v-0.0625zm0.875-0.21875v1.0156h-0.57812v-0.26562c-0.074219 0.10547-0.15625 0.18359-0.25 0.23438s-0.21094 0.078125-0.34375 0.078125c-0.1875 0-0.33984-0.050781-0.45312-0.15625-0.11719-0.11328-0.17188-0.25391-0.17188-0.42188 0-0.20703 0.066406-0.35938 0.20312-0.45312 0.14453-0.10156 0.375-0.15625 0.6875-0.15625h0.32812v-0.046875c0-0.082031-0.039063-0.14453-0.10938-0.1875-0.0625-0.039062-0.17188-0.0625-0.32812-0.0625-0.11719 0-0.22656 0.011719-0.32812 0.03125-0.10547 0.023438-0.20312 0.058594-0.29688 0.10938v-0.4375c0.125-0.03125 0.24219-0.050781 0.35938-0.0625 0.125-0.007813 0.25-0.015625 0.375-0.015625 0.32031 0 0.55078 0.0625 0.6875 0.1875 0.14453 0.125 0.21875 0.32812 0.21875 0.60938z"/>
  </symbol>
  <symbol id="c" overflow="visible">
   <path d="m0.89062-2.2812v0.5h0.59375v0.40625h-0.59375v0.75c0 0.085938 0.015625 0.14062 0.046875 0.17188s0.097656 0.046875 0.20312 0.046875h0.29688v0.40625h-0.5c-0.21875 0-0.375-0.046875-0.46875-0.14062s-0.14062-0.25391-0.14062-0.48438v-0.75h-0.28125v-0.40625h0.28125v-0.5z"/>
  </symbol>
  <symbol id="g" overflow="visible">
   <path d="m1.4844-1.5156v-0.95312h0.5625v2.4688h-0.5625v-0.25c-0.085937 0.10547-0.17188 0.18359-0.26562 0.23438-0.09375 0.039062-0.20312 0.0625-0.32812 0.0625-0.21875 0-0.40234-0.082031-0.54688-0.25-0.13672-0.17578-0.20312-0.40625-0.20312-0.6875 0-0.26953 0.066406-0.48828 0.20312-0.65625 0.14453-0.17578 0.32812-0.26562 0.54688-0.26562 0.125 0 0.23438 0.027344 0.32812 0.078125 0.09375 0.042969 0.17969 0.11719 0.26562 0.21875zm-0.375 1.1562c0.125 0 0.21875-0.046875 0.28125-0.14062s0.09375-0.22266 0.09375-0.39062c0-0.16406-0.03125-0.28906-0.09375-0.375-0.0625-0.09375-0.15625-0.14062-0.28125-0.14062s-0.21875 0.046875-0.28125 0.14062c-0.0625 0.085937-0.09375 0.21094-0.09375 0.375 0 0.16797 0.03125 0.29688 0.09375 0.39062s0.15625 0.14062 0.28125 0.14062z"/>
  </symbol>
  <symbol id="m" overflow="visible">
   <path d="m1.2188-0.35938c0.125 0 0.21875-0.046875 0.28125-0.14062s0.09375-0.22266 0.09375-0.39062c0-0.16406-0.03125-0.28906-0.09375-0.375-0.0625-0.09375-0.15625-0.14062-0.28125-0.14062s-0.21875 0.046875-0.28125 0.14062c-0.0625 0.085937-0.09375 0.21094-0.09375 0.375 0 0.16797 0.03125 0.29688 0.09375 0.39062s0.15625 0.14062 0.28125 0.14062zm-0.375-1.1562c0.070312-0.10156 0.15625-0.17578 0.25-0.21875 0.10156-0.050781 0.21875-0.078125 0.34375-0.078125 0.21875 0 0.39453 0.089844 0.53125 0.26562 0.14453 0.16797 0.21875 0.38672 0.21875 0.65625 0 0.28125-0.074219 0.51172-0.21875 0.6875-0.13672 0.16797-0.3125 0.25-0.53125 0.25-0.125 0-0.24219-0.027344-0.34375-0.078125-0.09375-0.050781-0.17969-0.125-0.25-0.21875v0.25h-0.57812v-2.4688h0.57812z"/>
  </symbol>
  <symbol id="l" overflow="visible">
   <path d="m0.046875-1.7812h0.5625l0.46875 1.2031 0.40625-1.2031h0.57812l-0.75 1.9531c-0.074219 0.19531-0.16406 0.33203-0.26562 0.40625-0.09375 0.082031-0.22656 0.125-0.39062 0.125h-0.32812v-0.375h0.17188c0.09375 0 0.16016-0.015625 0.20312-0.046875 0.050781-0.03125 0.085937-0.085938 0.10938-0.15625l0.015625-0.0625z"/>
  </symbol>
  <symbol id="f" overflow="visible">
   <path d="m0.26562-2.4688h0.57812v2.4688h-0.57812z"/>
  </symbol>
  <symbol id="j" overflow="visible">
   <path d="m0.25-0.6875v-1.0938h0.57812v0.1875 0.35938 0.28125 0.3125c0.007813 0.0625 0.023437 0.10938 0.046875 0.14062 0.019531 0.042969 0.046875 0.074219 0.078125 0.09375 0.039063 0.011719 0.085937 0.015625 0.14062 0.015625 0.11328 0 0.20312-0.039063 0.26562-0.125 0.070313-0.09375 0.10938-0.22266 0.10938-0.39062v-0.875h0.57812v1.7812h-0.57812v-0.25c-0.085938 0.09375-0.17188 0.16797-0.26562 0.21875s-0.19922 0.078125-0.3125 0.078125c-0.21094 0-0.37109-0.0625-0.48438-0.1875-0.10547-0.125-0.15625-0.30469-0.15625-0.54688z"/>
  </symbol>
  <symbol id="i" overflow="visible">
   <path d="m0.26562-1.7812h0.57812v1.7812h-0.57812zm0-0.6875h0.57812v0.46875h-0.57812z"/>
  </symbol>
  <symbol id="v" overflow="visible">
   <path d="m1.1719-1.3125c0.125 0 0.21094-0.023438 0.26562-0.078125 0.0625-0.050781 0.09375-0.12891 0.09375-0.23438 0-0.10156-0.03125-0.17578-0.09375-0.21875-0.054688-0.050781-0.14062-0.078125-0.26562-0.078125h-0.26562v0.60938zm-0.26562 0.42188v0.89062h-0.60938v-2.375h0.9375c0.3125 0 0.53906 0.054688 0.6875 0.15625 0.14453 0.10547 0.21875 0.27344 0.21875 0.5 0 0.15625-0.042969 0.28906-0.125 0.39062-0.074219 0.10547-0.18359 0.17969-0.32812 0.21875 0.082031 0.023437 0.15625 0.070313 0.21875 0.14062 0.0625 0.0625 0.12891 0.16406 0.20312 0.29688l0.32812 0.67188h-0.65625l-0.28125-0.59375c-0.0625-0.11328-0.125-0.19141-0.1875-0.23438-0.054688-0.039063-0.13281-0.0625-0.23438-0.0625z"/>
  </symbol>
  <symbol id="u" overflow="visible">
   <path d="m0.046875-1.7812h0.57812l0.4375 1.2344 0.4375-1.2344h0.57812l-0.70312 1.7812h-0.625z"/>
  </symbol>
  <symbol id="h" overflow="visible">
   <path d="m2.0625-1.0781v1.0781h-0.57812v-0.82812c0-0.15625-0.007813-0.25781-0.015625-0.3125 0-0.0625-0.011719-0.10938-0.03125-0.14062-0.023438-0.03125-0.054688-0.054688-0.09375-0.078125-0.03125-0.019531-0.074219-0.03125-0.125-0.03125-0.11719 0-0.21094 0.046875-0.28125 0.14062-0.0625 0.085938-0.09375 0.21094-0.09375 0.375v0.875h-0.57812v-1.7812h0.57812v0.26562c0.082031-0.10156 0.17188-0.17578 0.26562-0.21875 0.10156-0.050781 0.21094-0.078125 0.32812-0.078125 0.19531 0 0.34766 0.0625 0.45312 0.1875 0.11328 0.125 0.17188 0.30859 0.17188 0.54688z"/>
  </symbol>
  <symbol id="t" overflow="visible">
   <path d="m1.4375-2.4688v0.375h-0.3125c-0.085938 0-0.14062 0.015625-0.17188 0.046875-0.03125 0.023437-0.046875 0.070313-0.046875 0.14062v0.125h0.48438v0.40625h-0.48438v1.375h-0.5625v-1.375h-0.28125v-0.40625h0.28125v-0.125c0-0.1875 0.050781-0.32812 0.15625-0.42188 0.11328-0.09375 0.28125-0.14062 0.5-0.14062z"/>
  </symbol>
  <symbol id="e" overflow="visible">
   <path d="m1.125-1.4062c-0.125 0-0.22656 0.046875-0.29688 0.14062-0.0625 0.085937-0.09375 0.21094-0.09375 0.375 0 0.17969 0.03125 0.3125 0.09375 0.40625 0.070313 0.085937 0.17188 0.125 0.29688 0.125 0.11328 0 0.20312-0.039063 0.26562-0.125 0.070313-0.09375 0.10938-0.22656 0.10938-0.40625 0-0.16406-0.039062-0.28906-0.10938-0.375-0.0625-0.09375-0.15234-0.14062-0.26562-0.14062zm0-0.40625c0.30078 0 0.53516 0.085938 0.70312 0.25 0.17578 0.15625 0.26562 0.38281 0.26562 0.67188 0 0.29297-0.089844 0.52344-0.26562 0.6875-0.16797 0.16797-0.40234 0.25-0.70312 0.25-0.3125 0-0.55859-0.082031-0.73438-0.25-0.16797-0.16406-0.25-0.39453-0.25-0.6875 0-0.28906 0.082031-0.51562 0.25-0.67188 0.17578-0.16406 0.42188-0.25 0.73438-0.25z"/>
  </symbol>
  <symbol id="s" overflow="visible">
   <path d="m1.9219-1.4844c0.070313-0.10156 0.15625-0.17969 0.25-0.23438 0.10156-0.0625 0.21094-0.09375 0.32812-0.09375 0.20703 0 0.36328 0.0625 0.46875 0.1875 0.10156 0.125 0.15625 0.30859 0.15625 0.54688v1.0781h-0.5625v-0.92188-0.046875-0.0625c0-0.125-0.023438-0.21094-0.0625-0.26562-0.03125-0.0625-0.089844-0.09375-0.17188-0.09375-0.10547 0-0.1875 0.046875-0.25 0.14062-0.0625 0.085938-0.09375 0.21094-0.09375 0.375v0.875h-0.57812v-0.92188c0-0.19531-0.015625-0.32031-0.046875-0.375-0.03125-0.0625-0.089844-0.09375-0.17188-0.09375-0.11719 0-0.20312 0.046875-0.26562 0.14062-0.054687 0.085938-0.078125 0.21094-0.078125 0.375v0.875h-0.57812v-1.7812h0.57812v0.26562c0.070312-0.10156 0.14844-0.17578 0.23438-0.21875 0.09375-0.050781 0.19141-0.078125 0.29688-0.078125 0.125 0 0.23438 0.03125 0.32812 0.09375 0.09375 0.054688 0.16406 0.13281 0.21875 0.23438z"/>
  </symbol>
  <symbol id="r" overflow="visible">
   <path d="m2.0625-1.0781v1.0781h-0.57812v-0.82812c0-0.15625-0.007813-0.25781-0.015625-0.3125 0-0.0625-0.011719-0.10938-0.03125-0.14062-0.023438-0.03125-0.054688-0.054688-0.09375-0.078125-0.03125-0.019531-0.074219-0.03125-0.125-0.03125-0.11719 0-0.21094 0.046875-0.28125 0.14062-0.0625 0.085938-0.09375 0.21094-0.09375 0.375v0.875h-0.57812v-2.4688h0.57812v0.95312c0.082031-0.10156 0.17188-0.17578 0.26562-0.21875 0.10156-0.050781 0.21094-0.078125 0.32812-0.078125 0.19531 0 0.34766 0.0625 0.45312 0.1875 0.11328 0.125 0.17188 0.30859 0.17188 0.54688z"/>
  </symbol>
  <symbol id="q" overflow="visible">
   <path d="m0.29688-2.375h0.6875l0.85938 1.625v-1.625h0.57812v2.375h-0.6875l-0.85938-1.625v1.625h-0.57812z"/>
  </symbol>
  <symbol id="p" overflow="visible">
   <path d="m0.29688-2.375h1.0156c0.30078 0 0.53125 0.070312 0.6875 0.20312 0.16406 0.13672 0.25 0.32812 0.25 0.57812s-0.085938 0.44531-0.25 0.57812c-0.15625 0.125-0.38672 0.1875-0.6875 0.1875h-0.40625v0.82812h-0.60938zm0.60938 0.45312v0.65625h0.34375c0.11328 0 0.20312-0.023437 0.26562-0.078125 0.070313-0.0625 0.10938-0.14453 0.10938-0.25 0-0.10156-0.039062-0.17969-0.10938-0.23438-0.0625-0.0625-0.15234-0.09375-0.26562-0.09375z"/>
  </symbol>
  <symbol id="o" overflow="visible">
   <path d="m0.26562-1.7812h0.57812v1.75c0 0.23828-0.058594 0.42188-0.17188 0.54688-0.11719 0.125-0.28125 0.1875-0.5 0.1875h-0.28125v-0.375h0.09375c0.11328 0 0.1875-0.027344 0.21875-0.078125 0.039063-0.042969 0.0625-0.13672 0.0625-0.28125zm0-0.6875h0.57812v0.46875h-0.57812z"/>
  </symbol>
  <symbol id="n" overflow="visible">
   <path d="m1.7031-1.7188v0.45312c-0.074219-0.050781-0.15234-0.085937-0.23438-0.10938-0.074219-0.019531-0.15234-0.03125-0.23438-0.03125-0.15625 0-0.28125 0.046875-0.375 0.14062-0.085937 0.085937-0.125 0.21094-0.125 0.375 0 0.16797 0.039063 0.29688 0.125 0.39062 0.09375 0.09375 0.21875 0.14062 0.375 0.14062 0.09375 0 0.17578-0.007813 0.25-0.03125 0.082031-0.03125 0.15625-0.070313 0.21875-0.125v0.46875c-0.085937 0.03125-0.17188 0.050781-0.26562 0.0625-0.09375 0.019531-0.1875 0.03125-0.28125 0.03125-0.3125 0-0.5625-0.082031-0.75-0.25-0.17969-0.16406-0.26562-0.39453-0.26562-0.6875 0-0.28906 0.085937-0.51562 0.26562-0.67188 0.1875-0.16406 0.4375-0.25 0.75-0.25 0.09375 0 0.1875 0.011719 0.28125 0.03125 0.09375 0.011719 0.17969 0.03125 0.26562 0.0625z"/>
  </symbol>
 </defs>
 <g>
  <path d="m466.23 431.07c-12.371-13.023-24.746-26.699-37.766-39.723-9.7656-9.7656-31.906 13.023-35.812 16.93-18.234 17.582-55.348 2.6055-68.371-10.418l-9.1172-9.7656-110.05-87.906 22.789-22.141 9.7656 2.6055-3.2539-8.4648 20.836-20.188 28 18.234-18.883-26.699 20.188-20.188 20.836 13.676-14.324-19.535 22.141-21.488 1.3008 0.65234-1.3008-1.3008 33.211-31.906 4.5586 3.9062 7.8125-7.8125-3.2539-4.5586 29.301-28.652 84 113.3 9.1172 9.1172c13.023 13.676 28 50.141 9.1172 68.371-9.1172 9.1172-27.348 27.348-18.883 36.465l37.766 39.07c16.277 16.93 56.652 18.883 87.906 50.789 86.605 89.859 7.1641 166.7-79.441 76.188-31.254-31.906-31.906-72.277-48.188-88.559zm-343.16-279.35c0.65234-5.8594 0-10.418-9.7656-24.094-9.1172 13.676-10.418 18.234-9.7656 24.094 1.3008 16.277 18.234 16.277 19.535 0zm114.61 18.883c0.65234-5.8594-0.65234-9.7656-9.7656-24.094-9.7656 14.324-10.418 18.234-9.7656 24.094 1.3008 16.93 18.234 16.93 19.535 0zm-87.906 35.812c-0.65234-5.2109 0.65234-9.7656 9.7656-23.441 9.7656 13.676 10.418 18.234 10.418 23.441-1.9531 16.93-18.234 16.93-20.188 0zm-81.395-206.42h360.09c0 17.582-29.301 29.301-29.301 43.629v40.371c0 7.8125-6.5117 14.324-14.324 14.324-8.4648 0-14.977-6.5117-14.977-14.324v-28.652c0-15.629-25.395-16.93-25.395 0v84.652c0 7.8125-6.5117 13.676-14.324 13.676-7.1641 0-13.676-5.8594-13.676-13.676v-31.254c0-16.277-27.348-2.6055-27.348 13.676 0 38.418-55.348 45.582-55.348-11.07 0-26.699-27.348-26.699-27.348 0v125.02c0 18.234-27.348 18.234-27.348 0v-69.023c-11.07 0-28 2.6055-28-13.676v-67.723c0-17.582-27.348-16.277-27.348 0 0 40.371-26.699 40.371-26.699-0.65234v-16.93c0-24.094-28.652-20.836-28.652-41.023v-27.348zm392.65 247.44-138.05 132.84-101.58-80.746 9.7656-9.1172 24.746 7.1641-8.4648-22.789 9.1172-8.4648 68.371 44.277-46.234-65.766 7.1641-7.1641 65.766 42.977-46.234-61.859 8.4648-7.8125 83.348 71.629-69.023-85.953 18.883-18.234 62.512 47.535-47.535-54.047 37.766 35.812-29.953-50.789 13.676-13.676 77.488 104.19z" fill-rule="evenodd"/>
  <use x="68.371094" y="569.765625" xlink:href="#k"/>
  <use x="70.761719" y="569.765625" xlink:href="#d"/>
  <use x="72.367188" y="569.765625" xlink:href="#b"/>
  <use x="74.574219" y="569.765625" xlink:href="#a"/>
  <use x="76.773438" y="569.765625" xlink:href="#c"/>
  <use x="78.328125" y="569.765625" xlink:href="#b"/>
  <use x="80.535156" y="569.765625" xlink:href="#g"/>
  <use x="84" y="569.765625" xlink:href="#m"/>
  <use x="86.332031" y="569.765625" xlink:href="#l"/>
  <use x="89.585938" y="569.765625" xlink:href="#k"/>
  <use x="91.976562" y="569.765625" xlink:href="#f"/>
  <use x="93.09375" y="569.765625" xlink:href="#a"/>
  <use x="95.289062" y="569.765625" xlink:href="#j"/>
  <use x="97.609375" y="569.765625" xlink:href="#g"/>
  <use x="99.9375" y="569.765625" xlink:href="#i"/>
  <use x="101.054687" y="569.765625" xlink:href="#a"/>
  <use x="104.382812" y="569.765625" xlink:href="#v"/>
  <use x="106.890625" y="569.765625" xlink:href="#b"/>
  <use x="109.101562" y="569.765625" xlink:href="#u"/>
  <use x="111.222656" y="569.765625" xlink:href="#a"/>
  <use x="113.417969" y="569.765625" xlink:href="#f"/>
  <use x="114.535156" y="569.765625" xlink:href="#i"/>
  <use x="115.652344" y="569.765625" xlink:href="#h"/>
  <use x="117.96875" y="569.765625" xlink:href="#a"/>
  <use x="68.371094" y="573.023438" xlink:href="#t"/>
  <use x="69.789062" y="573.023438" xlink:href="#d"/>
  <use x="71.394531" y="573.023438" xlink:href="#e"/>
  <use x="73.632812" y="573.023438" xlink:href="#s"/>
  <use x="78.15625" y="573.023438" xlink:href="#c"/>
  <use x="79.714844" y="573.023438" xlink:href="#r"/>
  <use x="82.03125" y="573.023438" xlink:href="#b"/>
  <use x="85.371094" y="573.023438" xlink:href="#q"/>
  <use x="88.097656" y="573.023438" xlink:href="#e"/>
  <use x="90.335937" y="573.023438" xlink:href="#j"/>
  <use x="92.652344" y="573.023438" xlink:href="#h"/>
  <use x="96.105469" y="573.023438" xlink:href="#p"/>
  <use x="98.488281" y="573.023438" xlink:href="#d"/>
  <use x="100.09375" y="573.023438" xlink:href="#e"/>
  <use x="102.332031" y="573.023438" xlink:href="#o"/>
  <use x="103.449219" y="573.023438" xlink:href="#b"/>
  <use x="105.65625" y="573.023438" xlink:href="#n"/>
  <use x="107.585938" y="573.023438" xlink:href="#c"/>
 </g>
</svg>
