<svg width="70" height="26" viewBox="0 0 70 26" fill="none" xmlns="http://www.w3.org/2000/svg">
<path fill-rule="evenodd" clip-rule="evenodd" d="M70 1.79952L59.3115 12.9806L70 24.2516V26H0V0H70V1.79952Z" fill="#3EB049"/>
<path d="M10.7617 18V9.46875H13.75C14.7852 9.46875 15.5703 9.66797 16.1055 10.0664C16.6406 10.4609 16.9082 11.041 16.9082 11.8066C16.9082 12.2246 16.8008 12.5938 16.5859 12.9141C16.3711 13.2305 16.0723 13.4629 15.6895 13.6113C16.127 13.7207 16.4707 13.9414 16.7207 14.2734C16.9746 14.6055 17.1016 15.0117 17.1016 15.4922C17.1016 16.3125 16.8398 16.9336 16.3164 17.3555C15.793 17.7773 15.0469 17.9922 14.0781 18H10.7617ZM12.5195 14.2852V16.5879H14.0254C14.4395 16.5879 14.7617 16.4902 14.9922 16.2949C15.2266 16.0957 15.3438 15.8223 15.3438 15.4746C15.3438 14.6934 14.9395 14.2969 14.1309 14.2852H12.5195ZM12.5195 13.043H13.8203C14.707 13.0273 15.1504 12.6738 15.1504 11.9824C15.1504 11.5957 15.0371 11.3184 14.8105 11.1504C14.5879 10.9785 14.2344 10.8926 13.75 10.8926H12.5195V13.043ZM23.2422 16.2422H20.1602L19.5742 18H17.7051L20.8809 9.46875H22.5098L25.7031 18H23.834L23.2422 16.2422ZM20.6348 14.8184H22.7676L21.6953 11.625L20.6348 14.8184ZM29.6582 14.877H28.2578V18H26.5V9.46875H29.6699C30.6777 9.46875 31.4551 9.69336 32.002 10.1426C32.5488 10.5918 32.8223 11.2266 32.8223 12.0469C32.8223 12.6289 32.6953 13.1152 32.4414 13.5059C32.1914 13.8926 31.8105 14.2012 31.2988 14.4316L33.1445 17.918V18H31.2578L29.6582 14.877ZM28.2578 13.4531H29.6758C30.1172 13.4531 30.459 13.3418 30.7012 13.1191C30.9434 12.8926 31.0645 12.582 31.0645 12.1875C31.0645 11.7852 30.9492 11.4688 30.7188 11.2383C30.4922 11.0078 30.1426 10.8926 29.6699 10.8926H28.2578V13.4531ZM40.6211 9.46875V15.0879C40.6211 16.0215 40.3281 16.7598 39.7422 17.3027C39.1602 17.8457 38.3633 18.1172 37.3516 18.1172C36.3555 18.1172 35.5645 17.8535 34.9785 17.3262C34.3926 16.7988 34.0938 16.0742 34.082 15.1523V9.46875H35.8398V15.0996C35.8398 15.6582 35.9727 16.0664 36.2383 16.3242C36.5078 16.5781 36.8789 16.7051 37.3516 16.7051C38.3398 16.7051 38.8418 16.1855 38.8574 15.1465V9.46875H40.6211Z" fill="white"/>
</svg>
