<svg width="70" height="26" viewBox="0 0 70 26" fill="none" xmlns="http://www.w3.org/2000/svg">
<path fill-rule="evenodd" clip-rule="evenodd" d="M70 1.79952L59.3115 12.9806L70 24.2516V26H0V0H70V1.79952Z" fill="#E51515"/>
<path d="M12.5195 14.9941V18H10.7617V9.46875H14.0898C14.7305 9.46875 15.293 9.58594 15.7773 9.82031C16.2656 10.0547 16.6406 10.3887 16.9023 10.8223C17.1641 11.252 17.2949 11.7422 17.2949 12.293C17.2949 13.1289 17.0078 13.7891 16.4336 14.2734C15.8633 14.7539 15.0723 14.9941 14.0605 14.9941H12.5195ZM12.5195 13.5703H14.0898C14.5547 13.5703 14.9082 13.4609 15.1504 13.2422C15.3965 13.0234 15.5195 12.7109 15.5195 12.3047C15.5195 11.8867 15.3965 11.5488 15.1504 11.291C14.9043 11.0332 14.5645 10.9004 14.1309 10.8926H12.5195V13.5703ZM21.666 14.877H20.2656V18H18.5078V9.46875H21.6777C22.6855 9.46875 23.4629 9.69336 24.0098 10.1426C24.5566 10.5918 24.8301 11.2266 24.8301 12.0469C24.8301 12.6289 24.7031 13.1152 24.4492 13.5059C24.1992 13.8926 23.8184 14.2012 23.3066 14.4316L25.1523 17.918V18H23.2656L21.666 14.877ZM20.2656 13.4531H21.6836C22.125 13.4531 22.4668 13.3418 22.709 13.1191C22.9512 12.8926 23.0723 12.582 23.0723 12.1875C23.0723 11.7852 22.957 11.4688 22.7266 11.2383C22.5 11.0078 22.1504 10.8926 21.6777 10.8926H20.2656V13.4531ZM33.1797 13.9277C33.1797 14.7676 33.0312 15.5039 32.7344 16.1367C32.4375 16.7695 32.0117 17.2578 31.457 17.6016C30.9062 17.9453 30.2734 18.1172 29.5586 18.1172C28.8516 18.1172 28.2207 17.9473 27.666 17.6074C27.1113 17.2676 26.6816 16.7832 26.377 16.1543C26.0723 15.5215 25.918 14.7949 25.9141 13.9746V13.5527C25.9141 12.7129 26.0645 11.9746 26.3652 11.3379C26.6699 10.6973 27.0977 10.207 27.6484 9.86719C28.2031 9.52344 28.8359 9.35156 29.5469 9.35156C30.2578 9.35156 30.8887 9.52344 31.4395 9.86719C31.9941 10.207 32.4219 10.6973 32.7227 11.3379C33.0273 11.9746 33.1797 12.7109 33.1797 13.5469V13.9277ZM31.3984 13.541C31.3984 12.6465 31.2383 11.9668 30.918 11.502C30.5977 11.0371 30.1406 10.8047 29.5469 10.8047C28.957 10.8047 28.502 11.0352 28.1816 11.4961C27.8613 11.9531 27.6992 12.625 27.6953 13.5117V13.9277C27.6953 14.7988 27.8555 15.4746 28.1758 15.9551C28.4961 16.4355 28.957 16.6758 29.5586 16.6758C30.1484 16.6758 30.6016 16.4453 30.918 15.9844C31.2344 15.5195 31.3945 14.8438 31.3984 13.957V13.541ZM36.7539 9.46875L38.9453 15.6562L41.125 9.46875H43.4336V18H41.6699V15.668L41.8457 11.6426L39.543 18H38.3359L36.0391 11.6484L36.2148 15.668V18H34.457V9.46875H36.7539ZM51.9766 13.9277C51.9766 14.7676 51.8281 15.5039 51.5312 16.1367C51.2344 16.7695 50.8086 17.2578 50.2539 17.6016C49.7031 17.9453 49.0703 18.1172 48.3555 18.1172C47.6484 18.1172 47.0176 17.9473 46.4629 17.6074C45.9082 17.2676 45.4785 16.7832 45.1738 16.1543C44.8691 15.5215 44.7148 14.7949 44.7109 13.9746V13.5527C44.7109 12.7129 44.8613 11.9746 45.1621 11.3379C45.4668 10.6973 45.8945 10.207 46.4453 9.86719C47 9.52344 47.6328 9.35156 48.3438 9.35156C49.0547 9.35156 49.6855 9.52344 50.2363 9.86719C50.791 10.207 51.2188 10.6973 51.5195 11.3379C51.8242 11.9746 51.9766 12.7109 51.9766 13.5469V13.9277ZM50.1953 13.541C50.1953 12.6465 50.0352 11.9668 49.7148 11.502C49.3945 11.0371 48.9375 10.8047 48.3438 10.8047C47.7539 10.8047 47.2988 11.0352 46.9785 11.4961C46.6582 11.9531 46.4961 12.625 46.4922 13.5117V13.9277C46.4922 14.7988 46.6523 15.4746 46.9727 15.9551C47.293 16.4355 47.7539 16.6758 48.3555 16.6758C48.9453 16.6758 49.3984 16.4453 49.7148 15.9844C50.0312 15.5195 50.1914 14.8438 50.1953 13.957V13.541Z" fill="white"/>
</svg>
