<svg width="146" height="146" viewBox="0 0 146 146" fill="none" xmlns="http://www.w3.org/2000/svg">
<path d="M127.75 127.75L91.25 91.25M103.417 60.8333C103.417 66.4255 102.315 71.9628 100.175 77.1293C98.0352 82.2957 94.8985 86.9901 90.9443 90.9443C86.9901 94.8985 82.2957 98.0352 77.1293 100.175C71.9628 102.315 66.4255 103.417 60.8333 103.417C55.2412 103.417 49.7038 102.315 44.5374 100.175C39.371 98.0352 34.6766 94.8985 30.7224 90.9443C26.7681 86.9901 23.6315 82.2957 21.4915 77.1293C19.3515 71.9628 18.25 66.4255 18.25 60.8333C18.25 49.5395 22.7364 38.7083 30.7224 30.7224C38.7083 22.7364 49.5395 18.25 60.8333 18.25C72.1271 18.25 82.9584 22.7364 90.9443 30.7224C98.9302 38.7083 103.417 49.5395 103.417 60.8333Z" stroke="#CCCCCC" stroke-width="10" stroke-linecap="round" stroke-linejoin="round"/>
</svg>
